<?xml version="1.0" encoding="UTF-8"?>
<!-- Created with Inkscape (http://www.inkscape.org/) -->
<svg width="4.20283" height="4.20219" version="1.1" viewBox="0 0 4.20283 13.2607" xmlns="http://www.w3.org/2000/svg">
	<g transform="translate(-186.136 -141.086)">
		<g transform="translate(28.4862)" fill="#91a7ff" stroke-width=".322813">
			<path d="m155.019 154.346-1.74189-0.79689 5.93089-12.3061 1.72778 0.7969z" style="white-space:pre"/>
			<path d="m159.819 154.346-1.74188-0.79689 5.93088-12.3061 1.72779 0.7969z" style="white-space:pre"/>
			<path d="m162.192 151.388q0-0.34556 0.1622-0.62059 0.1622-0.28209 0.43724-0.44429 0.28208-0.16925 0.63469-0.16925 0.35967 0 0.64175 0.16925 0.28209 0.1622 0.44429 0.44429 0.1622 0.27503 0.1622 0.62059t-0.1622 0.6347q-0.1622 0.28208-0.44429 0.45133-0.28208 0.16221-0.64175 0.16221-0.35261 0-0.63469-0.16221-0.27504-0.16925-0.43724-0.45133-0.1622-0.28914-0.1622-0.6347z" style="white-space:pre"/>
		</g>
	</g>
</svg>
