<?xml version="1.0" encoding="UTF-8"?>
<!-- Created with Inkscape (http://www.inkscape.org/) -->
<svg width="30.632" height="4.59915" version="1.1" viewBox="0 0 30.632 14.5134" xmlns="http://www.w3.org/2000/svg">
	<g transform="translate(-186.294 -141.243)">
		<g transform="translate(98.2774)" stroke-width=".322813">
			<path d="m56.7419 154.346-1.74189-0.79689 5.93088-12.3061 1.72778 0.7969z" fill="#91a7ff" style="white-space:pre"/>
			<g>
				<path d="m70.3738 152.393q-0.380818 0.25388-0.923837 0.39492-0.543019 0.14105-1.06488 0.14105-1.19887 0-1.84767-0.62765-0.6488-0.62764-0.6488-1.61495v-4.42877h-1.70663v-0.91678h1.70663v-1.68547l1.18477-0.14105v1.82652h2.56699l-0.141045 0.91678h-2.42595v4.41467q0 0.62059 0.324401 0.94499 0.331451 0.3244 1.09309 0.3244 0.416078 0 0.768688-0.0987t0.655852-0.25388z" style="white-space:pre"/>
				<path d="m77.835 145.185q0.359658 0 0.68406 0.15515 0.331453 0.15515 0.543018 0.59943 0.211566 0.44429 0.211566 1.2976v5.52891h-1.10014v-5.3385q0-0.69816-0.08462-1.00846-0.08463-0.31029-0.486602-0.31029-0.33145 0-0.662904 0.21156-0.324401 0.20451-0.634696 0.67701v5.76868h-1.10719v-5.3385q0-0.69816-0.08463-1.00846-0.08463-0.31029-0.486602-0.31029-0.345558 0-0.669956 0.21156-0.31735 0.20451-0.627644 0.67701v5.76868h-1.09309v-7.42594h0.930889l0.07052 0.86036q0.303245-0.43018 0.677011-0.71932 0.380818-0.29619 0.937938-0.29619 0.423134 0 0.796896 0.20451 0.373766 0.19746 0.550071 0.77574 0.303245-0.43723 0.684063-0.70522 0.380819-0.27503 0.952046-0.27503z" style="white-space:pre"/>
				<path d="m84.725 145.185q0.987306 0 1.57264 0.47955 0.592383 0.47955 0.853313 1.35402 0.26093 0.86742 0.26093 2.03103 0 1.12129-0.317347 2.00281-0.310297 0.87448-0.944993 1.37518-0.634695 0.50071-1.60084 0.50071-1.22003 0-1.96051-0.86037v3.54019l-1.18477 0.1481v-10.4161h1.00846l0.09873 1.03667q0.409026-0.57123 0.973201-0.88152 0.571227-0.3103 1.24119-0.3103zm-0.282089 0.95204q-0.613539 0-1.08603 0.37377-0.465446 0.36671-0.768688 0.81805v3.68124q0.289138 0.43018 0.726372 0.68406 0.44429 0.24683 0.973202 0.24683 0.923837 0 1.38928-0.70522 0.465446-0.70522 0.465446-2.19323 0-0.9732-0.183357-1.61495-0.183357-0.6488-0.557122-0.96615-0.373766-0.3244-0.959098-0.3244z" style="white-space:pre"/>
			</g>
			<path d="m90.5924 154.346-1.74189-0.79689 5.93088-12.3061 1.72778 0.7969z" fill="#91a7ff" style="white-space:pre"/>
			<g>
				<path d="m103.829 152.767h-1.67842l-0.9591-5.45133-1.04372 5.45133h-1.63611l-1.35402-7.42594h1.21298l0.944993 6.69252 1.18477-5.74753h1.40338l1.1213 5.74753 0.94499-6.69252h1.15656z" style="white-space:pre"/>
				<path d="m107.722 149.473q0.0353 0.86036 0.33145 1.41043 0.29619 0.54302 0.78279 0.80395 0.4866 0.25388 1.05783 0.25388t1.02962-0.16925q0.46544-0.16926 0.95204-0.50071l0.55713 0.78279q-0.52186 0.40903-1.19182 0.64175-0.66291 0.23273-1.36107 0.23273-1.07899 0-1.84062-0.48661-0.76164-0.4866-1.16361-1.35401-0.39493-0.87447-0.39493-2.02398 0-1.12835 0.40198-2.00282 0.40197-0.87447 1.12835-1.37518 0.72637-0.5007 1.71368-0.5007 0.93794 0 1.61495 0.44429 0.67701 0.43723 1.03667 1.25529 0.36671 0.811 0.36671 1.93935 0 0.1904-7e-3 0.35966-7e-3 0.1622-0.0211 0.28914zm2.01692-3.31453q-0.8251 0-1.38223 0.58533-0.55006 0.58533-0.62764 1.81241h3.87165q-0.0211-1.19182-0.52186-1.79125-0.50071-0.60649-1.33992-0.60649z" style="white-space:pre"/>
				<path d="m116.439 146.307q0.40903-0.53597 0.93794-0.82511 0.53596-0.29619 1.17771-0.29619 0.99436 0 1.6079 0.47955t0.89563 1.35402q0.28208 0.86742 0.28208 2.03103 0 1.12129-0.3385 2.00281-0.3385 0.87448-0.99436 1.37518-0.6488 0.50071-1.6079 0.50071-1.29054 0-2.02397-0.93089l-0.0846 0.76868h-1.03667v-10.4161l1.18477-0.14809zm1.67842 5.6629q0.93089 0 1.43159-0.71932 0.50071-0.71933 0.50071-2.20734 0-0.9732-0.19747-1.61495-0.19746-0.6488-0.59238-0.96615-0.38787-0.3244-0.9591-0.3244-0.62059 0-1.09309 0.37377-0.46544 0.36671-0.76868 0.81805v3.68124q0.28914 0.43724 0.72637 0.69817 0.44429 0.26093 0.95205 0.26093z" style="white-space:pre"/>
			</g>
			<path d="m123.851 151.395q0-0.34556 0.1622-0.62059 0.1622-0.28209 0.43724-0.44429 0.28208-0.16925 0.63469-0.16925 0.35967 0 0.64175 0.16925 0.28209 0.1622 0.44429 0.44429 0.1622 0.27503 0.1622 0.62059t-0.1622 0.6347q-0.1622 0.28208-0.44429 0.45133-0.28208 0.16221-0.64175 0.16221-0.35261 0-0.63469-0.16221-0.27504-0.16925-0.43724-0.45133-0.1622-0.28914-0.1622-0.6347z" fill="#91a7ff" style="white-space:pre"/>
			<g>
				<path d="m128.844 152.291v-7.42594h1.00846l0.0917 1.02962q0.45134-0.57123 1.12835-0.87447 0.68406-0.3103 1.32581-0.3103 1.09309 0 1.58674 0.57828 0.50071 0.57828 0.50071 1.6079v5.39491h-1.18477v-4.52044q0-0.76164-0.0846-1.22708-0.0846-0.4725-0.35261-0.68406-0.26799-0.21861-0.83216-0.21861-0.43724 0-0.82511 0.19041-0.38081 0.19041-0.68406 0.47954-0.29619 0.28209-0.49365 0.57123v5.40902z" style="white-space:pre"/>
				<path d="m138.237 148.997q0.0353 0.86036 0.33146 1.41043 0.29619 0.54302 0.78279 0.80395 0.4866 0.25388 1.05782 0.25388 0.57123 0 1.02962-0.16925 0.46545-0.16926 0.95205-0.50071l0.55712 0.78279q-0.52186 0.40903-1.19182 0.64175-0.6629 0.23273-1.36107 0.23273-1.07899 0-1.84062-0.48661-0.76163-0.4866-1.16361-1.35401-0.39492-0.87447-0.39492-2.02398 0-1.12835 0.40197-2.00281 0.40198-0.87448 1.12835-1.37518 0.72638-0.5007 1.71368-0.5007 0.93794 0 1.61495 0.44429 0.67701 0.43723 1.03667 1.25529 0.36672 0.811 0.36672 1.93934 0 0.19041-7e-3 0.35966-7e-3 0.1622-0.0211 0.28914zm2.01693-3.31453q-0.82511 0-1.38223 0.58533-0.55007 0.58533-0.62765 1.81241h3.87165q-0.0211-1.19182-0.52186-1.79124-0.5007-0.6065-1.33991-0.6065z" style="white-space:pre"/>
				<path d="m151.664 151.917q-0.38082 0.25389-0.92384 0.39493-0.54301 0.14105-1.06488 0.14105-1.19887 0-1.84767-0.62765-0.6488-0.62764-0.6488-1.61495v-4.42877h-1.70663v-0.91678h1.70663v-1.68547l1.18477-0.14105v1.82651h2.56699l-0.14104 0.91678h-2.42595v4.41467q0 0.62059 0.3244 0.94499 0.33145 0.3244 1.09309 0.3244 0.41608 0 0.76868-0.0987 0.35261-0.0987 0.65586-0.25388z" style="white-space:pre"/>
			</g>
		</g>
	</g>
</svg>
