<?xml version="1.0" encoding="UTF-8" standalone="no"?>
<!-- Created with Inkscape (http://www.inkscape.org/) -->

<svg
   width="120.265mm"
   height="38.110989mm"
   viewBox="0 0 120.265 38.110989"
   version="1.1"
   id="svg5"
   inkscape:version="1.2.2 (b0a8486541, 2022-12-01)"
   sodipodi:docname="logo.svg"
   inkscape:export-filename="logo-export.svg"
   inkscape:export-xdpi="96"
   inkscape:export-ydpi="96"
   xmlns:inkscape="http://www.inkscape.org/namespaces/inkscape"
   xmlns:sodipodi="http://sodipodi.sourceforge.net/DTD/sodipodi-0.dtd"
   xmlns="http://www.w3.org/2000/svg"
   xmlns:svg="http://www.w3.org/2000/svg">
  <sodipodi:namedview
     id="namedview7"
     pagecolor="#ffffff"
     bordercolor="#000000"
     borderopacity="0.25"
     inkscape:showpageshadow="2"
     inkscape:pageopacity="0.0"
     inkscape:pagecheckerboard="0"
     inkscape:deskcolor="#d1d1d1"
     inkscape:document-units="mm"
     showgrid="false"
     inkscape:zoom="2.8284271"
     inkscape:cx="229.27937"
     inkscape:cy="102.17693"
     inkscape:window-width="1920"
     inkscape:window-height="1131"
     inkscape:window-x="0"
     inkscape:window-y="0"
     inkscape:window-maximized="1"
     inkscape:current-layer="layer1" />
  <defs
     id="defs2">
    <rect
       x="80.333527"
       y="37.751846"
       width="464.54413"
       height="168.38229"
       id="rect113" />
  </defs>
  <g
     inkscape:label="Layer 1"
     inkscape:groupmode="layer"
     id="layer1"
     style="display:inline"
     transform="translate(-44.8675,-129.44451)">
    <g
       id="g1377"
       style="display:inline"
       inkscape:label="indigo3"
       transform="translate(1.6678145)">
      <path
         d="m 56.741891,154.34626 -1.74189,-0.79689 5.930885,-12.30606 1.727785,0.7969 z"
         style="font-weight:bold;font-size:42.6667px;font-family:'Fira Code';-inkscape-font-specification:'Fira Code Bold';text-align:center;text-anchor:middle;white-space:pre;fill:#91a7ff;fill-opacity:1;stroke-width:0.322813"
         id="path1353" />
      <path
         d="m 70.373764,152.39281 q -0.380818,0.25388 -0.923837,0.39492 -0.543019,0.14105 -1.064878,0.14105 -1.198871,0 -1.847674,-0.62765 -0.6488,-0.62764 -0.6488,-1.61495 v -4.42877 h -1.706629 v -0.91678 h 1.706629 v -1.68547 l 1.184767,-0.14105 v 1.82652 h 2.566994 l -0.141045,0.91678 h -2.425949 v 4.41467 q 0,0.62059 0.324401,0.94499 0.331451,0.3244 1.093087,0.3244 0.416078,0 0.768688,-0.0987 0.35261,-0.0987 0.655852,-0.25388 z"
         style="font-weight:normal;font-size:42.6667px;font-family:'Fira Code';-inkscape-font-specification:'Fira Code';text-align:center;text-anchor:middle;white-space:pre;fill:#000000;stroke-width:0.322813"
         id="path1355" />
      <path
         d="m 77.834979,145.18548 q 0.359658,0 0.68406,0.15515 0.331453,0.15515 0.543018,0.59943 0.211566,0.44429 0.211566,1.2976 v 5.52891 h -1.100142 v -5.3385 q 0,-0.69816 -0.08462,-1.00846 -0.08463,-0.31029 -0.486602,-0.31029 -0.33145,0 -0.662904,0.21156 -0.324401,0.20451 -0.634696,0.67701 v 5.76868 h -1.107193 v -5.3385 q 0,-0.69816 -0.08463,-1.00846 -0.08463,-0.31029 -0.486602,-0.31029 -0.345558,0 -0.669956,0.21156 -0.31735,0.20451 -0.627644,0.67701 v 5.76868 h -1.09309 v -7.42594 h 0.930889 l 0.07052,0.86036 q 0.303245,-0.43018 0.677011,-0.71932 0.380818,-0.29619 0.937938,-0.29619 0.423134,0 0.796896,0.20451 0.373766,0.19746 0.550071,0.77574 0.303245,-0.43723 0.684063,-0.70522 0.380819,-0.27503 0.952046,-0.27503 z"
         style="font-weight:normal;font-size:42.6667px;font-family:'Fira Code';-inkscape-font-specification:'Fira Code';text-align:center;text-anchor:middle;white-space:pre;fill:#000000;stroke-width:0.322813"
         id="path1357" />
      <path
         d="m 84.724966,145.18548 q 0.987306,0 1.572637,0.47955 0.592383,0.47955 0.853313,1.35402 0.26093,0.86742 0.26093,2.03103 0,1.12129 -0.317347,2.00281 -0.310297,0.87448 -0.944993,1.37518 -0.634695,0.50071 -1.600844,0.50071 -1.220027,0 -1.960507,-0.86037 v 3.54019 l -1.184766,0.1481 v -10.41607 h 1.008461 l 0.09873,1.03667 q 0.409026,-0.57123 0.973201,-0.88152 0.571227,-0.3103 1.241186,-0.3103 z m -0.282089,0.95204 q -0.613539,0 -1.086034,0.37377 -0.465446,0.36671 -0.768688,0.81805 v 3.68124 q 0.289138,0.43018 0.726372,0.68406 0.44429,0.24683 0.973202,0.24683 0.923837,0 1.389279,-0.70522 0.465446,-0.70522 0.465446,-2.19323 0,-0.9732 -0.183357,-1.61495 -0.183357,-0.6488 -0.557122,-0.96615 -0.373766,-0.3244 -0.959098,-0.3244 z"
         style="font-weight:normal;font-size:42.6667px;font-family:'Fira Code';-inkscape-font-specification:'Fira Code';text-align:center;text-anchor:middle;white-space:pre;fill:#000000;stroke-width:0.322813"
         id="path1359" />
      <path
         d="m 90.592385,154.34626 -1.741889,-0.79689 5.930885,-12.30606 1.727785,0.7969 z"
         style="font-weight:bold;font-size:42.6667px;font-family:'Fira Code';-inkscape-font-specification:'Fira Code Bold';text-align:center;text-anchor:middle;white-space:pre;fill:#91a7ff;fill-opacity:1;stroke-width:0.322813"
         id="path1361" />
      <path
         d="m 103.82934,152.76657 h -1.67842 l -0.9591,-5.45133 -1.04372,5.45133 h -1.636109 l -1.354019,-7.42594 h 1.212975 l 0.944993,6.69252 1.18477,-5.74753 h 1.40338 l 1.1213,5.74753 0.94499,-6.69252 h 1.15656 z"
         style="font-weight:normal;font-size:42.6667px;font-family:'Fira Code';-inkscape-font-specification:'Fira Code';text-align:center;text-anchor:middle;white-space:pre;fill:#000000;stroke-width:0.322813"
         id="path1363" />
      <path
         d="m 107.72215,149.47321 q 0.0353,0.86036 0.33145,1.41043 0.29619,0.54302 0.78279,0.80395 0.4866,0.25388 1.05783,0.25388 0.57123,0 1.02962,-0.16925 0.46544,-0.16926 0.95204,-0.50071 l 0.55713,0.78279 q -0.52186,0.40903 -1.19182,0.64175 -0.66291,0.23273 -1.36107,0.23273 -1.07899,0 -1.84062,-0.48661 -0.76164,-0.4866 -1.16361,-1.35401 -0.39493,-0.87447 -0.39493,-2.02398 0,-1.12835 0.40198,-2.00282 0.40197,-0.87447 1.12835,-1.37518 0.72637,-0.5007 1.71368,-0.5007 0.93794,0 1.61495,0.44429 0.67701,0.43723 1.03667,1.25529 0.36671,0.811 0.36671,1.93935 0,0.1904 -0.007,0.35966 -0.007,0.1622 -0.0211,0.28914 z m 2.01692,-3.31453 q -0.8251,0 -1.38223,0.58533 -0.55006,0.58533 -0.62764,1.81241 h 3.87165 q -0.0211,-1.19182 -0.52186,-1.79125 -0.50071,-0.60649 -1.33992,-0.60649 z"
         style="font-weight:normal;font-size:42.6667px;font-family:'Fira Code';-inkscape-font-specification:'Fira Code';text-align:center;text-anchor:middle;white-space:pre;fill:#000000;stroke-width:0.322813"
         id="path1365" />
      <path
         d="m 116.43865,146.30678 q 0.40903,-0.53597 0.93794,-0.82511 0.53596,-0.29619 1.17771,-0.29619 0.99436,0 1.6079,0.47955 0.61354,0.47955 0.89563,1.35402 0.28208,0.86742 0.28208,2.03103 0,1.12129 -0.3385,2.00281 -0.3385,0.87448 -0.99436,1.37518 -0.6488,0.50071 -1.6079,0.50071 -1.29054,0 -2.02397,-0.93089 l -0.0846,0.76868 h -1.03667 V 142.3505 l 1.18477,-0.14809 z m 1.67842,5.6629 q 0.93089,0 1.43159,-0.71932 0.50071,-0.71933 0.50071,-2.20734 0,-0.9732 -0.19747,-1.61495 -0.19746,-0.6488 -0.59238,-0.96615 -0.38787,-0.3244 -0.9591,-0.3244 -0.62059,0 -1.09309,0.37377 -0.46544,0.36671 -0.76868,0.81805 v 3.68124 q 0.28914,0.43724 0.72637,0.69817 0.44429,0.26093 0.95205,0.26093 z"
         style="font-weight:normal;font-size:42.6667px;font-family:'Fira Code';-inkscape-font-specification:'Fira Code';text-align:center;text-anchor:middle;white-space:pre;fill:#000000;stroke-width:0.322813"
         id="path1367" />
      <path
         d="m 123.85052,151.39516 q 0,-0.34556 0.1622,-0.62059 0.1622,-0.28209 0.43724,-0.44429 0.28208,-0.16925 0.63469,-0.16925 0.35967,0 0.64175,0.16925 0.28209,0.1622 0.44429,0.44429 0.1622,0.27503 0.1622,0.62059 0,0.34556 -0.1622,0.6347 -0.1622,0.28208 -0.44429,0.45133 -0.28208,0.16221 -0.64175,0.16221 -0.35261,0 -0.63469,-0.16221 -0.27504,-0.16925 -0.43724,-0.45133 -0.1622,-0.28914 -0.1622,-0.6347 z"
         style="font-weight:normal;font-size:42.6667px;font-family:'Fira Code';-inkscape-font-specification:'Fira Code';text-align:center;text-anchor:middle;white-space:pre;fill:#91a7ff;fill-opacity:1;stroke-width:0.322813"
         id="path1369" />
      <path
         d="m 128.8435,152.29054 v -7.42594 h 1.00846 l 0.0917,1.02962 q 0.45134,-0.57123 1.12835,-0.87447 0.68406,-0.3103 1.32581,-0.3103 1.09309,0 1.58674,0.57828 0.50071,0.57828 0.50071,1.6079 v 5.39491 h -1.18477 v -4.52044 q 0,-0.76164 -0.0846,-1.22708 -0.0846,-0.4725 -0.35261,-0.68406 -0.26799,-0.21861 -0.83216,-0.21861 -0.43724,0 -0.82511,0.19041 -0.38081,0.19041 -0.68406,0.47954 -0.29619,0.28209 -0.49365,0.57123 v 5.40902 z"
         style="font-weight:normal;font-size:42.6667px;font-family:'Fira Code';-inkscape-font-specification:'Fira Code';text-align:center;text-anchor:middle;white-space:pre;fill:#000000;stroke-width:0.322813"
         id="path1371" />
      <path
         d="m 138.23701,148.99718 q 0.0353,0.86036 0.33146,1.41043 0.29619,0.54302 0.78279,0.80395 0.4866,0.25388 1.05782,0.25388 0.57123,0 1.02962,-0.16925 0.46545,-0.16926 0.95205,-0.50071 l 0.55712,0.78279 q -0.52186,0.40903 -1.19182,0.64175 -0.6629,0.23273 -1.36107,0.23273 -1.07899,0 -1.84062,-0.48661 -0.76163,-0.4866 -1.16361,-1.35401 -0.39492,-0.87447 -0.39492,-2.02398 0,-1.12835 0.40197,-2.00281 0.40198,-0.87448 1.12835,-1.37518 0.72638,-0.5007 1.71368,-0.5007 0.93794,0 1.61495,0.44429 0.67701,0.43723 1.03667,1.25529 0.36672,0.811 0.36672,1.93934 0,0.19041 -0.007,0.35966 -0.007,0.1622 -0.0211,0.28914 z m 2.01693,-3.31453 q -0.82511,0 -1.38223,0.58533 -0.55007,0.58533 -0.62765,1.81241 h 3.87165 q -0.0211,-1.19182 -0.52186,-1.79124 -0.5007,-0.6065 -1.33991,-0.6065 z"
         style="font-weight:normal;font-size:42.6667px;font-family:'Fira Code';-inkscape-font-specification:'Fira Code';text-align:center;text-anchor:middle;white-space:pre;fill:#000000;stroke-width:0.322813"
         id="path1373" />
      <path
         d="m 151.66437,151.91678 q -0.38082,0.25389 -0.92384,0.39493 -0.54301,0.14105 -1.06488,0.14105 -1.19887,0 -1.84767,-0.62765 -0.6488,-0.62764 -0.6488,-1.61495 v -4.42877 h -1.70663 v -0.91678 h 1.70663 v -1.68547 l 1.18477,-0.14105 v 1.82651 h 2.56699 l -0.14104,0.91678 h -2.42595 v 4.41467 q 0,0.62059 0.3244,0.94499 0.33145,0.3244 1.09309,0.3244 0.41608,0 0.76868,-0.0987 0.35261,-0.0987 0.65586,-0.25388 z"
         style="font-weight:normal;font-size:42.6667px;font-family:'Fira Code';-inkscape-font-specification:'Fira Code';text-align:center;text-anchor:middle;white-space:pre;fill:#000000;stroke-width:0.322813"
         id="path1375" />
    </g>
  </g>
</svg>
